<?xml version="1.0" standalone="no"?>
<!DOCTYPE svg PUBLIC "-//W3C//DTD SVG 20010904//EN"
 "http://www.w3.org/TR/2001/REC-SVG-20010904/DTD/svg10.dtd">
<svg version="1.0" xmlns="http://www.w3.org/2000/svg"
 width="500.000000pt" height="500.000000pt" viewBox="0 0 500.000000 500.000000"
 preserveAspectRatio="xMidYMid meet">

<g transform="translate(0.000000,500.000000) scale(0.100000,-0.100000)"
fill="#000000" stroke="none">
<path d="M2687 2660 c-10 -14 -58 -86 -107 -161 -87 -133 -145 -198 -161 -182
-14 14 16 113 66 219 49 105 50 108 35 99 -15 -10 -60 -102 -53 -109 4 -3 2
-6 -4 -6 -10 0 -28 -46 -25 -62 1 -5 -2 -8 -7 -8 -10 0 -31 -77 -31 -114 0
-63 56 -44 117 40 84 116 85 116 58 39 -27 -76 -31 -120 -14 -131 6 -3 16 -1
22 6 7 6 8 11 2 10 -5 -2 -13 -2 -17 -1 -18 3 74 246 118 314 30 45 30 88 1
47z"/>
<path d="M3352 2663 c-21 -8 -102 -120 -128 -177 -25 -55 -78 -111 -94 -101
-5 3 -2 24 6 47 10 30 11 44 3 54 -18 22 -32 17 -70 -22 -18 -20 -47 -45 -64
-56 l-30 -20 27 5 c19 3 28 -1 30 -12 3 -12 11 -8 33 18 63 71 74 76 55 26
-16 -42 5 -60 44 -40 27 14 28 14 23 -6 -3 -12 -2 -32 3 -45 15 -40 55 -32
104 21 39 41 43 43 58 29 25 -25 64 -10 117 44 26 26 33 36 16 21 -51 -43 -62
-50 -94 -59 -41 -11 -39 0 4 28 39 25 46 56 15 72 -17 9 -24 5 -52 -37 -47
-67 -115 -133 -138 -133 -16 0 -20 7 -20 35 0 22 6 38 15 41 35 14 165 217
165 259 0 15 -6 17 -28 8z m18 -20 c0 -13 -64 -119 -103 -171 -48 -63 -61 -53
-24 18 47 89 127 187 127 153z m-250 -166 c0 -2 -14 -16 -32 -33 -30 -28 -30
-17 0 19 13 15 32 23 32 14z m300 -5 c0 -5 -13 -21 -30 -37 -32 -31 -40 -20
-14 20 15 24 44 34 44 17z"/>
<path d="M1690 2630 c-31 -24 -40 -25 -40 -2 -1 12 -8 8 -30 -18 -33 -37 -40
-61 -13 -39 15 12 16 12 8 -1 -4 -8 -18 -28 -30 -45 -53 -73 -81 -167 -65
-221 l8 -29 7 33 c6 25 11 31 24 26 49 -21 91 -28 103 -16 9 9 6 12 -15 12
-38 0 -100 27 -92 40 3 6 11 8 16 5 5 -4 9 -1 9 5 0 7 7 9 16 6 10 -4 13 -2 8
6 -5 7 -2 9 8 6 8 -4 15 0 15 7 0 11 -5 11 -28 -1 -37 -18 -36 -19 -35 15 1
16 4 27 7 25 4 -2 10 3 13 12 3 8 2 12 -4 9 -6 -3 -10 -1 -10 4 0 6 6 11 13
11 6 0 20 20 30 44 17 41 79 104 117 119 13 5 13 5 0 6 -8 0 -26 -8 -40 -19z"/>
<path d="M1788 2625 c3 -16 -4 -39 -20 -63 -24 -37 -41 -72 -34 -72 2 0 18 21
35 47 30 45 40 96 22 107 -4 3 -6 -6 -3 -19z"/>
<path d="M2270 2583 c-33 -68 -39 -85 -82 -239 -19 -69 -20 -84 -9 -98 15 -18
31 -21 31 -5 0 5 -4 7 -10 4 -17 -11 -11 69 11 141 12 38 37 99 55 137 31 61
37 67 67 68 30 2 30 2 5 6 -28 4 -36 17 -18 28 14 9 12 25 -3 25 -8 0 -29 -30
-47 -67z"/>
<path d="M2043 2628 c-51 -66 -146 -288 -141 -327 l4 -26 14 30 c22 48 93 155
103 155 5 0 6 -13 2 -30 -4 -16 -4 -39 0 -50 5 -17 13 -20 51 -16 49 4 69 18
98 68 16 27 11 24 -26 -17 -25 -27 -49 -47 -53 -43 -6 6 8 53 33 110 2 5 -1 8
-6 8 -6 0 -18 -21 -28 -47 -9 -27 -23 -54 -30 -62 -19 -21 -33 -4 -27 34 3 19
3 42 -1 51 -5 14 -9 14 -23 3 -9 -8 -29 -32 -45 -53 -15 -21 -28 -34 -28 -28
0 19 58 140 94 196 20 31 32 56 27 56 -5 0 -13 -6 -18 -12z"/>
<path d="M2832 2609 c-9 -17 -32 -50 -49 -72 -18 -23 -30 -49 -28 -58 3 -8 -6
-44 -20 -79 -26 -67 -32 -115 -15 -125 6 -4 10 11 10 37 0 24 4 48 8 53 5 6
17 33 27 60 9 28 37 87 62 133 24 45 39 82 33 82 -6 0 -19 -14 -28 -31z"/>
<path d="M2380 2596 c0 -2 16 -6 35 -8 19 -2 35 0 35 4 0 4 -16 8 -35 8 -19 0
-35 -2 -35 -4z"/>
<path d="M2208 2583 c6 -2 18 -2 25 0 6 3 1 5 -13 5 -14 0 -19 -2 -12 -5z"/>
<path d="M2073 2573 c15 -2 37 -2 50 0 12 2 0 4 -28 4 -27 0 -38 -2 -22 -4z"/>
<path d="M2152 2558 c-7 -7 -12 -19 -12 -27 0 -11 5 -8 16 7 18 25 15 39 -4
20z"/>
<path d="M2842 2527 c-19 -22 -72 -176 -63 -181 5 -3 25 21 44 53 20 32 43 64
52 71 13 11 15 7 15 -27 0 -56 10 -59 37 -13 29 48 40 50 46 8 3 -29 4 -27 5
10 1 23 -1 42 -5 42 -4 0 -20 -12 -35 -27 l-28 -27 0 32 c0 41 -16 49 -46 21
-26 -25 -33 -14 -9 17 8 10 15 22 15 27 0 11 -17 8 -28 -6z"/>
<path d="M1801 2474 c-12 -15 -21 -34 -21 -43 0 -9 8 -3 19 16 18 29 23 31 59
26 22 -3 48 0 58 6 15 9 10 10 -23 5 -27 -4 -48 -2 -57 5 -11 9 -18 6 -35 -15z"/>
<path d="M2675 2474 c-20 -20 -55 -89 -55 -108 0 -19 25 -27 43 -13 8 7 28 32
44 57 45 68 46 70 30 64 -8 -3 -18 -1 -22 5 -9 15 -21 14 -40 -5z m37 -30 c-2
-10 -18 -36 -35 -58 -42 -53 -50 -24 -10 39 28 45 51 55 45 19z"/>
<path d="M1832 2420 c-7 -11 -21 -20 -33 -20 -11 0 -18 -4 -15 -9 13 -21 72
15 64 39 -2 6 -9 1 -16 -10z"/>
<path d="M749 2353 c-13 -16 -12 -17 4 -4 9 7 17 15 17 17 0 8 -8 3 -21 -13z"/>
<path d="M1767 2330 c-20 -4 -41 -10 -45 -15 -10 -11 71 4 83 16 5 5 7 8 5 8
-3 -1 -22 -5 -43 -9z"/>
</g>
</svg>
